<svg width="1378" height="173" viewBox="0 0 1378 173" fill="none" xmlns="http://www.w3.org/2000/svg">
<path d="M1226.95 160.371L1225.33 168.28H1222.78L1224.43 160.285C1224.47 160.097 1224.49 159.905 1224.49 159.74C1224.49 158.961 1224.1 158.354 1222.89 158.354C1222.2 158.354 1221.6 158.522 1220.97 158.836L1219.03 168.276H1216.49L1219.88 151.808H1222.43L1221.26 157.406C1221.91 157.073 1222.93 156.756 1223.91 156.756C1225.99 156.756 1227.03 157.825 1227.03 159.462C1227.03 159.764 1227.01 160.058 1226.95 160.371V160.371ZM1236.95 165.973C1235.95 167.524 1234.47 168.491 1232.46 168.491C1229.94 168.491 1228.68 166.854 1228.68 164.508C1228.68 162.808 1229.27 160.669 1230.18 159.263C1231.2 157.707 1232.73 156.763 1234.7 156.763C1237.25 156.763 1238.45 158.377 1238.45 160.751C1238.46 162.428 1237.85 164.59 1236.95 165.973V165.973ZM1234.52 158.377C1233.43 158.377 1232.68 159.133 1232.16 160.246C1231.62 161.397 1231.14 163.454 1231.14 164.735C1231.14 165.89 1231.52 166.748 1232.69 166.748C1233.79 166.748 1234.52 165.992 1235.02 164.903C1235.56 163.728 1236.02 161.629 1236.02 160.352C1236.02 159.219 1235.66 158.377 1234.52 158.377ZM1248.14 168.448C1247.52 171.511 1245.48 173 1242.62 173C1241.13 173 1239.71 172.663 1238.91 172.181L1239.89 170.587C1240.46 170.904 1241.46 171.175 1242.52 171.175C1244.33 171.175 1245.31 170.082 1245.62 168.675L1245.77 167.982C1245.29 168.213 1244.56 168.382 1243.66 168.382C1241.43 168.382 1240.02 166.909 1240.02 164.48C1240.02 162.761 1240.7 160.618 1241.7 159.255C1242.85 157.68 1244.56 156.756 1246.81 156.756C1248.39 156.756 1249.69 157.132 1250.37 157.551L1248.14 168.448V168.448ZM1246.48 158.275C1245.23 158.275 1244.29 158.988 1243.58 160.289C1242.95 161.444 1242.5 163.332 1242.5 164.656C1242.5 166.125 1243.12 166.901 1244.54 166.901C1245.12 166.901 1245.67 166.752 1246.06 166.545L1247.72 158.507C1247.5 158.377 1247.12 158.275 1246.48 158.275ZM1261.07 162.576L1254 163.564C1253.84 165.283 1254.34 166.729 1256.38 166.729C1257.59 166.729 1258.71 166.353 1259.34 166.035L1259.63 167.673C1258.78 168.111 1257.42 168.491 1255.86 168.491C1253.24 168.491 1251.57 167.042 1251.57 164.296C1251.57 162.616 1252.17 160.626 1253.11 159.263C1254.2 157.688 1255.78 156.763 1257.66 156.763C1259.95 156.763 1261.32 158.107 1261.32 160.563C1261.32 161.17 1261.23 161.84 1261.07 162.576V162.576ZM1257.38 158.315C1256.36 158.315 1255.42 158.965 1254.77 160.183C1254.48 160.751 1254.23 161.444 1254.06 162.263L1258.9 161.55C1259.01 161.092 1259.05 160.645 1259.05 160.269C1259.04 158.945 1258.44 158.315 1257.38 158.315V158.315ZM1269.54 158.965C1269.21 158.671 1268.55 158.44 1267.84 158.44C1266.74 158.44 1265.88 159.282 1265.88 160.265C1265.88 162.091 1269.3 161.652 1269.3 164.355C1269.3 166.498 1267.59 168.487 1264.5 168.487C1263.32 168.487 1262.15 168.131 1261.54 167.669L1262.5 166.094C1262.85 166.368 1263.58 166.682 1264.5 166.682C1265.77 166.682 1266.65 165.675 1266.65 164.649C1266.65 162.8 1263.42 163.282 1263.42 160.575C1263.42 158.667 1265 156.756 1267.65 156.756C1268.83 156.756 1269.75 157.073 1270.42 157.574L1269.54 158.965V158.965ZM1278.92 158.945C1278.7 158.777 1278.22 158.487 1277.59 158.487C1276.55 158.487 1275.68 159.075 1275.05 160.164C1274.42 161.233 1274.02 162.909 1274.02 164.175C1274.02 165.706 1274.63 166.607 1275.73 166.607C1276.38 166.607 1277.07 166.353 1277.42 166.082L1277.69 167.673C1277.17 168.111 1276.17 168.491 1274.98 168.491C1272.86 168.491 1271.46 166.791 1271.46 164.214C1271.46 162.533 1272.05 160.52 1272.98 159.157C1274.07 157.563 1275.61 156.767 1277.21 156.767C1278.42 156.767 1279.42 157.23 1279.78 157.582L1278.92 158.945V158.945ZM1290.11 160.371L1288.49 168.28H1285.94L1287.59 160.285C1287.63 160.097 1287.65 159.905 1287.65 159.74C1287.65 158.961 1287.25 158.354 1286.04 158.354C1285.36 158.354 1284.75 158.522 1284.13 158.836L1282.19 168.276H1279.65L1283.05 151.808H1285.59L1284.42 157.406C1285.07 157.073 1286.09 156.756 1287.07 156.756C1289.15 156.756 1290.19 157.825 1290.19 159.462C1290.2 159.764 1290.18 160.058 1290.11 160.371V160.371ZM1300.12 165.973C1299.12 167.524 1297.63 168.491 1295.61 168.491C1293.09 168.491 1291.84 166.854 1291.84 164.508C1291.84 162.808 1292.43 160.669 1293.35 159.263C1294.37 157.707 1295.89 156.763 1297.87 156.763C1300.41 156.763 1301.62 158.377 1301.62 160.751C1301.62 162.428 1301.01 164.59 1300.12 165.973V165.973ZM1297.68 158.377C1296.6 158.377 1295.85 159.133 1295.33 160.246C1294.79 161.397 1294.3 163.454 1294.3 164.735C1294.3 165.89 1294.68 166.748 1295.85 166.748C1296.95 166.748 1297.68 165.992 1298.18 164.903C1298.72 163.728 1299.18 161.629 1299.18 160.352C1299.18 159.219 1298.82 158.377 1297.68 158.377V158.377ZM1311.5 165.973C1310.5 167.524 1309.01 168.491 1306.99 168.491C1304.47 168.491 1303.22 166.854 1303.22 164.508C1303.22 162.808 1303.8 160.669 1304.72 159.263C1305.74 157.707 1307.26 156.763 1309.24 156.763C1311.78 156.763 1312.99 158.377 1312.99 160.751C1312.99 162.428 1312.39 164.59 1311.5 165.973V165.973ZM1309.06 158.377C1307.97 158.377 1307.22 159.133 1306.7 160.246C1306.16 161.397 1305.68 163.454 1305.68 164.735C1305.68 165.89 1306.06 166.748 1307.22 166.748C1308.33 166.748 1309.06 165.992 1309.56 164.903C1310.1 163.728 1310.56 161.629 1310.56 160.352C1310.56 159.219 1310.2 158.377 1309.06 158.377ZM1316.6 168.284H1314.08L1317.48 151.812H1320L1316.6 168.284ZM1152.07 145.811L1171.35 107.74H1162.58C1159.73 107.74 1158.08 111.485 1158.08 111.485L1149.49 130.526C1149.03 131.549 1148.65 132.524 1148.36 133.394C1148.37 133.014 1148.38 132.626 1148.38 132.215C1148.38 131.717 1148.37 131.204 1148.34 130.687L1147.62 111.524C1147.45 107.862 1143.02 107.74 1143.02 107.74H1135.22L1139.62 147.915H1148.73C1148.74 147.915 1150.96 148.001 1152.07 145.811V145.811ZM1266.8 113.361L1268.65 110.239L1268.31 110.004C1265.46 108.018 1261.92 107.016 1257.76 107.016C1247.62 107.016 1242.15 114.317 1242.15 121.188C1242.15 126.554 1245.6 128.611 1248.37 130.26C1250.45 131.502 1252.24 132.571 1252.24 134.702C1252.24 137.135 1250.36 139.716 1246.88 139.716C1245.45 139.716 1244.18 139.485 1243.14 139.152C1240.64 138.412 1239.29 139.63 1238.73 140.499C1238.25 141.248 1235.87 145.278 1235.87 145.278L1236.18 145.517C1238.55 147.307 1242.91 148.514 1247.03 148.514C1259.11 148.514 1264.61 140.715 1264.61 133.468C1264.61 128.231 1260.94 126.088 1257.99 124.357C1255.75 123.045 1253.81 121.909 1253.81 119.805C1253.81 117.153 1255.96 115.152 1258.82 115.152C1259.92 115.152 1260.97 115.351 1261.88 115.645C1261.88 115.649 1264.64 116.793 1266.8 113.361V113.361ZM1222.68 148.263H1232.42L1237.97 120.773C1238.23 119.476 1238.34 118.477 1238.34 117.529C1238.34 112.782 1235.76 107.118 1223.44 107.118C1217.17 107.118 1211.24 108.175 1206.75 110.087L1206.54 110.177L1199.63 143.915C1199.63 143.915 1207.87 140.613 1209.82 139.743C1212.59 138.502 1213.21 135.932 1213.89 132.892C1214.99 127.957 1217.32 116.241 1217.4 115.821C1218.51 115.481 1220.1 115.105 1221.88 115.105C1224.76 115.105 1226.29 116.299 1226.29 118.556C1226.29 119.022 1226.22 119.5 1226.09 120.068C1226.08 120.079 1222.56 137.863 1221.11 145.177C1221.11 145.177 1220.27 148.385 1222.68 148.263V148.263ZM1120.76 107.004C1116.42 107.039 1114.34 107.376 1111.46 108.026C1110.5 108.246 1108.86 108.727 1107.89 109.139C1104.85 110.463 1105.51 114.47 1106.01 117.482L1106.02 117.494C1108.69 116.491 1112.44 114.94 1116.68 114.94C1119.13 114.94 1120.69 115.394 1121.45 116.331C1121.84 116.82 1122.04 117.459 1122.04 118.266C1122.04 118.681 1121.98 119.143 1121.88 119.652C1121.88 119.652 1121.66 120.726 1121.57 121.157L1120.3 127.283C1120.09 128.341 1117.62 140.276 1117.53 140.707C1116.5 141.146 1115.16 141.393 1113.72 141.393C1111.52 141.393 1109.98 140.872 1109.15 139.849C1108.63 139.203 1108.37 138.329 1108.37 137.24C1108.37 136.672 1108.44 136.053 1108.58 135.376C1109.47 131.055 1113.13 129.124 1115.64 128.09C1116.82 127.6 1117.22 125.747 1117.5 124.408L1118 121.568C1108.8 122.837 1099.33 125.963 1097.33 135.634C1097.11 136.719 1097 137.742 1097 138.701C1097 140.922 1097.6 142.791 1098.8 144.279C1101.07 147.088 1105.47 148.514 1111.87 148.514C1118.12 148.514 1123.69 147.464 1127.55 145.56L1127.74 145.466L1132.61 121.858C1133.6 117.083 1133.07 113.401 1131.06 110.901C1129.05 108.414 1125.62 107.047 1120.76 107V107.004ZM1188.46 107.004C1184.12 107.039 1182.05 107.376 1179.17 108.026C1178.2 108.246 1176.57 108.727 1175.59 109.139C1172.56 110.463 1173.21 114.47 1173.72 117.482L1173.73 117.494C1176.4 116.491 1180.15 114.94 1184.38 114.94C1186.83 114.94 1188.4 115.394 1189.15 116.331C1189.55 116.82 1189.74 117.459 1189.74 118.266C1189.74 118.681 1189.69 119.143 1189.59 119.652C1189.59 119.652 1189.37 120.726 1189.28 121.157L1188.01 127.291C1187.79 128.348 1185.33 140.284 1185.24 140.715C1184.21 141.154 1182.87 141.4 1181.43 141.4C1179.22 141.4 1177.68 140.879 1176.86 139.857C1176.33 139.211 1176.07 138.337 1176.07 137.248C1176.07 136.68 1176.14 136.061 1176.28 135.384C1177.17 131.063 1180.83 129.132 1183.34 128.098C1184.52 127.608 1184.93 125.755 1185.21 124.416L1185.71 121.576C1176.51 122.845 1167.04 125.975 1165.04 135.646C1164.82 136.735 1164.71 137.757 1164.71 138.713C1164.71 140.934 1165.31 142.803 1166.51 144.291C1168.78 147.1 1173.18 148.526 1179.57 148.526C1185.83 148.526 1191.4 147.476 1195.26 145.572L1195.45 145.478L1200.32 121.869C1201.31 117.094 1200.78 113.412 1198.77 110.913C1196.75 108.414 1193.32 107.047 1188.46 107L1188.46 107.004V107.004Z" fill="#C6002A"/>
<path d="M1378 0C1378 0 622.5 150 234.5 143C234.5 143 142.5 143 72 135.5C1.5 128 0 124 0 124V0H1378Z" fill="#C6002A"/>
</svg>
